<?xml version="1.0" standalone="no"?>
<!DOCTYPE svg PUBLIC "-//W3C//DTD SVG 20010904//EN"
 "http://www.w3.org/TR/2001/REC-SVG-20010904/DTD/svg10.dtd">
<svg version="1.0" xmlns="http://www.w3.org/2000/svg"
 width="465.000000pt" height="89.000000pt" viewBox="0 0 465.000000 89.000000"
 preserveAspectRatio="xMidYMid meet">

<g transform="translate(0.000000,89.000000) scale(0.100000,-0.100000)"
fill="#000000" stroke="none">
<path d="M740 700 c12 -23 59 -27 78 -8 22 22 13 28 -38 28 -48 0 -50 -1 -40
-20z"/>
<path d="M880 700 c7 -13 21 -20 40 -20 19 0 33 7 40 20 10 19 8 20 -40 20
-48 0 -50 -1 -40 -20z"/>
<path d="M1675 644 c-37 -9 -78 -11 -105 -7 -48 7 -210 11 -223 5 -5 -2 1 -13
12 -23 15 -14 21 -32 21 -64 0 -42 -35 -217 -49 -243 -9 -17 -81 214 -81 260
0 19 7 41 15 48 8 7 15 15 15 19 0 3 -88 6 -195 6 -107 0 -195 -4 -195 -9 0
-4 11 -17 24 -27 61 -48 63 -294 1 -346 -34 -30 -67 -29 -102 1 -26 23 -28 30
-32 116 -5 130 5 194 36 230 13 17 22 30 19 31 -37 3 -229 0 -233 -4 -3 -4 2
-13 10 -22 38 -38 50 -196 21 -281 -14 -42 -14 -47 1 -64 37 -41 106 -63 195
-64 92 -1 128 11 182 62 27 25 28 26 10 51 -22 34 -24 220 -1 266 34 70 64 33
125 -152 34 -104 43 -176 23 -188 -5 -4 -8 -12 -6 -18 2 -7 46 -11 121 -12
115 -2 117 -1 111 19 -30 91 16 301 82 372 l26 28 17 -22 c45 -55 52 -273 12
-351 -12 -23 -18 -41 -14 -42 4 -1 41 -2 82 -3 41 -2 105 -6 141 -11 98 -11
152 0 194 39 22 21 35 43 35 58 0 24 -2 25 -37 19 -21 -4 -53 -4 -70 0 -31 6
-33 5 -33 -22 0 -84 -106 -92 -131 -10 -14 48 -4 130 18 138 8 3 44 -9 78 -26
57 -30 67 -32 98 -22 34 12 57 44 57 81 0 23 -1 24 -34 9 -21 -10 -31 -8 -61
10 -49 29 -96 27 -134 -5 l-31 -26 0 51 c0 29 7 67 14 86 13 30 20 35 49 35
39 0 67 -25 67 -59 0 -18 4 -22 18 -16 9 3 36 11 60 18 46 12 52 25 23 51 -49
44 -136 55 -246 30z"/>
<path d="M2812 645 c-62 -19 -106 -57 -136 -117 -107 -215 165 -422 360 -273
51 39 77 97 78 175 1 110 -61 187 -176 217 -62 16 -71 16 -126 -2z m111 -42
c42 -48 56 -246 23 -316 -30 -60 -80 -63 -115 -6 -39 64 -39 264 1 314 23 30
67 33 91 8z"/>
<path d="M3251 649 c-58 -11 -90 -33 -107 -74 -20 -48 -18 -77 9 -116 28 -42
75 -51 106 -20 26 26 27 53 2 75 -28 26 -63 13 -55 -20 5 -20 2 -24 -15 -24
-17 0 -21 6 -21 29 0 38 32 61 82 61 60 0 68 -17 68 -133 0 -110 -12 -172 -36
-185 -8 -4 -12 -15 -9 -24 5 -12 15 -13 58 -6 47 7 104 4 150 -8 23 -7 22 21
-2 47 -25 27 -31 62 -31 179 l0 98 33 6 c41 8 75 41 83 81 l6 30 -89 0 c-48 0
-110 3 -138 6 -27 4 -70 3 -94 -2z"/>
<path d="M3745 643 c-52 -11 -81 -13 -113 -5 -48 11 -63 0 -39 -26 41 -45 51
-265 17 -341 -11 -24 -20 -46 -20 -50 0 -3 35 -6 78 -7 42 0 116 -4 163 -9 99
-9 142 1 182 43 14 15 28 39 32 53 6 26 6 27 -35 19 -23 -4 -56 -4 -74 0 -30
7 -32 5 -28 -16 5 -27 -37 -74 -65 -74 -52 0 -90 73 -75 145 10 50 30 62 68
42 80 -44 95 -48 130 -37 37 13 54 35 54 73 0 24 -2 25 -29 14 -24 -9 -35 -7
-65 11 -43 26 -98 29 -116 6 -8 -8 -22 -20 -33 -26 -19 -10 -20 -8 -14 51 7
81 27 111 73 111 32 0 37 -4 52 -40 12 -29 21 -38 32 -34 8 4 34 12 57 18 l41
12 -16 27 c-19 32 -87 58 -146 56 -23 -1 -72 -8 -111 -16z"/>
<path d="M225 632 c-56 -27 -90 -68 -110 -130 -35 -106 4 -217 93 -269 43 -26
54 -28 127 -24 44 2 112 4 150 5 39 1 73 5 76 9 3 5 -3 25 -13 45 -20 38 -20
82 0 132 5 14 11 29 13 35 3 5 -38 10 -98 11 -105 2 -124 -6 -88 -36 39 -33
25 -155 -20 -166 -40 -10 -59 0 -80 41 -28 56 -29 267 -2 308 9 15 25 27 34
27 9 0 38 -22 63 -50 39 -42 52 -50 82 -50 44 0 68 25 75 78 l5 40 -63 -1
c-35 0 -95 3 -134 7 -59 6 -77 4 -110 -12z"/>
<path d="M2000 641 c0 -3 10 -25 23 -50 19 -40 22 -62 22 -173 0 -116 -2 -129
-23 -158 -13 -17 -22 -36 -20 -41 2 -6 38 -12 81 -12 85 -2 98 9 52 45 -13 10
-29 36 -35 56 -12 43 -14 172 -2 172 4 0 16 -13 25 -29 10 -17 49 -58 87 -92
77 -68 90 -92 66 -118 -9 -10 -16 -22 -16 -27 0 -5 37 -9 82 -9 91 0 113 12
83 45 -43 48 -40 307 4 354 12 12 21 27 21 32 0 7 -125 10 -158 5 -2 -1 7 -14
21 -31 27 -32 47 -107 46 -173 0 -37 -2 -40 -12 -22 -7 11 -45 52 -85 90 -69
67 -85 96 -61 110 27 17 -5 27 -99 28 -56 1 -102 0 -102 -2z"/>
<path d="M4080 638 c0 -4 10 -24 22 -45 42 -70 36 -296 -9 -346 -23 -25 -10
-32 60 -32 34 -1 100 -4 147 -9 74 -7 89 -5 120 12 97 53 110 201 20 247 -37
19 -53 19 -91 0 -36 -19 -52 -55 -39 -90 8 -21 14 -24 40 -19 39 8 60 -10 60
-52 0 -65 -83 -86 -124 -31 -19 26 -21 42 -21 160 1 104 4 139 18 166 9 19 17
37 17 40 0 3 -49 6 -110 6 -60 0 -110 -3 -110 -7z"/>
</g>
</svg>
